<svg width="140" height="46" viewBox="0 0 140 46" fill="none" xmlns="http://www.w3.org/2000/svg">
<path d="M44.2102 10.9701C30.2915 4.08422 11.5729 15.42 11.5729 15.42C9.34667 8.32579 11.9898 0.67601 11.9898 0.67601C11.9898 0.67601 8.51017 6.65641 10.1805 16.045C10.1805 16.045 0.0221204 23.0698 0.369553 28.9807C0.716985 34.8917 8.37119 37.0472 14.2856 36.1444C14.2856 36.1444 6.77033 35.2416 6.07547 29.4669C5.3806 23.6948 11.0865 19.5227 11.0865 19.5227C11.4874 30.2975 24.1687 49.0801 31.7534 44.4192C37.7266 40.7492 37.5716 34.1305 37.2348 31.4835C37.4165 36.4649 29.6741 43.1291 21.8703 35.5861C13.4517 27.4502 12.3373 18.27 12.3373 18.27C31.5449 4.92026 44.2102 10.9701 44.2102 10.9701Z" fill="#F84040"/>
<path d="M61.1597 22.2631H52.5915V15.4975H50.4106V31.9723H52.5915V24.2183H61.1597V31.9723H63.3512V15.4975H61.1597V22.2631Z" fill="black"/>
<path d="M69.2199 24.4427H78.3173V22.4875H69.2199V17.4526H78.9453V15.4975H67.0391V31.9723H79.3275V30.0144H69.2199V24.4427Z" fill="black"/>
<path d="M84.5792 15.4975H82.3984V31.9723H92.5969V30.0144H84.5792V15.4975Z" fill="black"/>
<path d="M101.05 23.0831L96.1275 15.4975H93.4736L99.9492 24.9929V31.9723H102.13V24.9929L108.606 15.4975H105.952L101.05 23.0831Z" fill="black"/>
<path d="M115.028 15.4975L108.696 31.9696H111L112.823 26.9588H119.726L121.637 31.9696H124.098L117.374 15.4975H115.028ZM113.419 25.2279L116.185 17.5862L119.085 25.2279H113.419Z" fill="black"/>
<path d="M131.148 15.4975H125.921V31.9696H131.148C136.747 31.9696 139.548 29.1944 139.548 23.644C139.548 18.2139 136.75 15.4975 131.148 15.4975ZM135.996 28.3477C135.128 29.4615 133.498 30.0171 131.106 30.0171H128.104V17.4553H131.106C133.503 17.4553 135.136 17.9949 136.002 19.0739C136.868 20.153 137.301 21.6782 137.301 23.6467C137.301 25.666 136.865 27.2339 135.996 28.3477Z" fill="black"/>
<path d="M37.2347 31.4861C37.2213 31.0935 37.1571 30.7089 37.0396 30.3456C37.0422 30.3456 37.1465 30.773 37.2347 31.4861Z" fill="black"/>
</svg>
